<?xml version="1.0" encoding="UTF-8"?>
<svg width="211px" height="56px" viewBox="0 0 211 56" version="1.1" xmlns="http://www.w3.org/2000/svg" xmlns:xlink="http://www.w3.org/1999/xlink">
    <title>Group 7</title>
    <g id="Page-1" stroke="none" stroke-width="1" fill="none" fill-rule="evenodd">
        <g id="Teacher-View" transform="translate(-30, -40)">
            <g id="Group-7" transform="translate(30, 40)">
                <circle id="Oval" fill="#E1E1E1" cx="28" cy="28" r="28"></circle>
                <g id="Group-6" transform="translate(18, 11)">
                    <g id="Group-5" transform="translate(-0, 2.9123)" fill="#000000">
                        <path d="M10.4739585,-0.545415109 C12.1883787,-0.545415109 13.5781908,0.844397042 13.5781908,2.55881721 C13.5781908,2.60337536 13.5772314,2.64792834 13.5753133,2.69244518 C12.7152481,22.6528858 11.7727995,32.6331068 10.7479371,32.6331068 C9.73327619,32.6331068 8.63783403,22.8505831 7.46161063,3.28553553 L7.42595287,2.68966035 C7.3256242,1.00629333 8.60893034,-0.439677735 10.2922974,-0.540006406 C10.352784,-0.543611409 10.4133645,-0.545415109 10.4739585,-0.545415109 Z M11.1535159,3.65882654 L10.5089488,3.65882654 C9.79318772,3.65882654 9.21294876,4.23906551 9.21294876,4.95482654 L9.21294876,7.61780568 C9.21294876,8.33356671 9.79318772,8.91380568 10.5089488,8.91380568 L11.1535159,8.91380568 C11.8692769,8.91380568 12.4495159,8.33356671 12.4495159,7.61780568 L12.4495159,4.95482654 C12.4495159,4.23906551 11.8692769,3.65882654 11.1535159,3.65882654 Z" id="Combined-Shape" transform="translate(10.5, 16.0438) rotate(29) translate(-10.5, -16.0438)"></path>
                    </g>
                    <path d="M17.6292508,4.56136266 C19.2144796,1.16770082 16.0191904,-2.08782847 11.3868595,1.69649722 C7.03004881,5.25574008 1.21310048,16.8769947 0.196575664,3.25006113" id="Path" stroke="#000000" stroke-width="1.62"></path>
                </g>
                <text id="tailorED" font-family="SFProRounded-Medium, SF Pro Rounded" font-size="40" font-weight="400" letter-spacing="0.733333328">
                    <tspan x="69" y="42" fill="#767676">tailor</tspan>
                    <tspan x="158.985937" y="42" fill="#6E6E6E">ED</tspan>
                </text>
            </g>
        </g>
    </g>
</svg>